<svg width="16" height="16" viewBox="0 0 16 16" fill="none" xmlns="http://www.w3.org/2000/svg">
<g clip-path="url(#clip0_117_104)">
<path d="M11.0309 10.3933C11.0309 10.5113 11.0778 10.6245 11.1613 10.7079C11.2447 10.7914 11.3579 10.8382 11.4759 10.8382C11.5939 10.8382 11.707 10.7914 11.7905 10.7079C11.8739 10.6245 11.9208 10.5113 11.9208 10.3933C11.9208 10.2752 11.8739 10.1621 11.7905 10.0786C11.707 9.99516 11.5939 9.94828 11.4759 9.94828C11.3579 9.94828 11.2447 9.99516 11.1613 10.0786C11.0778 10.1621 11.0309 10.2752 11.0309 10.3933ZM5.12568 13.0419H9.85927C10.0467 13.0419 10.1867 12.9013 10.1992 12.7144V9.48018C10.1867 9.30393 10.0349 9.15207 9.85927 9.16332H5.12568C5.03735 9.16263 4.95228 9.1966 4.88872 9.25795C4.82516 9.31929 4.78819 9.40312 4.78574 9.49143V12.7138C4.78574 12.9019 4.93821 13.0419 5.12568 13.0419ZM13.2812 10.8389C13.3411 10.8389 13.4004 10.8272 13.4557 10.8044C13.5111 10.7815 13.5614 10.748 13.6037 10.7056C13.6461 10.6633 13.6797 10.6131 13.7026 10.5578C13.7256 10.5024 13.7374 10.4431 13.7374 10.3833C13.7375 10.293 13.7108 10.2047 13.6608 10.1296C13.6107 10.0545 13.5395 9.99594 13.4562 9.96131C13.3729 9.92669 13.2811 9.91756 13.1926 9.93509C13.1041 9.95263 13.0227 9.99603 12.9589 10.0598C12.895 10.1236 12.8515 10.2049 12.8338 10.2934C12.8162 10.3819 12.8252 10.4737 12.8597 10.5571C12.8942 10.6405 12.9527 10.7118 13.0277 10.7619C13.1027 10.8121 13.1909 10.8389 13.2812 10.8389ZM12.3795 10.827C12.3195 10.8248 12.2597 10.8347 12.2037 10.8561C12.1477 10.8776 12.0965 10.9101 12.0533 10.9518C12.0101 10.9934 11.9758 11.0434 11.9524 11.0986C11.9289 11.1538 11.9169 11.2132 11.9169 11.2732C11.917 11.3332 11.9291 11.3926 11.9526 11.4478C11.9761 11.503 12.0105 11.5529 12.0538 11.5945C12.097 11.6361 12.1482 11.6686 12.2043 11.6899C12.2603 11.7113 12.3201 11.7211 12.3801 11.7188C12.4955 11.7144 12.6046 11.6655 12.6846 11.5823C12.7647 11.4991 12.8093 11.3881 12.8093 11.2726C12.8092 11.1571 12.7644 11.0462 12.6842 10.9631C12.6041 10.88 12.4948 10.8312 12.3795 10.827ZM11.9339 9.49143C11.9339 9.60944 11.9808 9.72262 12.0642 9.80607C12.1477 9.88952 12.2608 9.9364 12.3788 9.9364C12.4968 9.9364 12.61 9.88952 12.6935 9.80607C12.7769 9.72262 12.8238 9.60944 12.8238 9.49143C12.8238 9.37341 12.7769 9.26023 12.6935 9.17678C12.61 9.09333 12.4968 9.04645 12.3788 9.04645C12.2608 9.04645 12.1477 9.09333 12.0642 9.17678C11.9808 9.26023 11.9339 9.37341 11.9339 9.49143ZM1.58689 10.382C1.58689 10.6555 1.69552 10.9178 1.88889 11.1112C2.08225 11.3046 2.34451 11.4132 2.61797 11.4132C2.89143 11.4132 3.15369 11.3046 3.34705 11.1112C3.54042 10.9178 3.64905 10.6555 3.64905 10.382C3.64905 10.1085 3.54042 9.84623 3.34705 9.65284C3.15369 9.45945 2.89143 9.35081 2.61797 9.35081C2.34451 9.35081 2.08225 9.45945 1.88889 9.65284C1.69552 9.84623 1.58689 10.1085 1.58689 10.382ZM13.2924 7.3696e-06H1.70437C1.25214 -0.00132105 0.81788 0.176992 0.497047 0.495753C0.176215 0.814514 -0.0049372 1.24764 -0.0065918 1.69993V13.2881C0.00528123 14.2374 0.767029 14.9993 1.70437 14.9993H13.2812C13.7341 14.9998 14.169 14.8217 14.4914 14.5035C14.8138 14.1854 14.9978 13.7529 15.0034 13.3V1.71055C14.9915 0.761846 14.2298 7.3696e-06 13.2924 7.3696e-06ZM14.4879 13.3C14.4866 13.6165 14.3603 13.9197 14.1365 14.1435C13.9127 14.3673 13.6095 14.4936 13.2931 14.4949H1.70437C1.38779 14.4938 1.08449 14.3675 0.860572 14.1437C0.636653 13.9199 0.510264 13.6166 0.508947 13.3V8.01525H14.4872L14.4879 13.3ZM14.4879 7.24153H0.508947V1.71055C0.5101 1.39382 0.636416 1.09039 0.860353 0.86643C1.08429 0.642467 1.38768 0.516135 1.70437 0.514983H13.2924C13.948 0.514983 14.4872 1.05433 14.4872 1.71055L14.4879 7.24153ZM10.8791 1.94491H4.08273C3.89526 1.94491 3.74278 2.10928 3.74278 2.29677V5.71848C3.74278 5.90597 3.88401 6.07034 4.08273 6.07034H10.8785C10.924 6.07002 10.9691 6.06062 11.0109 6.04268C11.0528 6.02473 11.0907 5.99861 11.1224 5.96585C11.154 5.93308 11.1788 5.89432 11.1953 5.85185C11.2118 5.80937 11.2197 5.76403 11.2184 5.71848V2.2849C11.2185 2.24023 11.2098 2.19598 11.1927 2.15469C11.1757 2.11341 11.1506 2.0759 11.119 2.04431C11.0874 2.01272 11.0499 1.98768 11.0087 1.97063C10.9674 1.95357 10.9238 1.94483 10.8791 1.94491Z" fill="white"/>
</g>
<defs>
<clipPath id="clip0_117_104">
<rect width="16" height="16" fill="white"/>
</clipPath>
</defs>
</svg>
