<svg width="20" height="20" viewBox="0 0 20 20" fill="none" xmlns="http://www.w3.org/2000/svg">
<path d="M13.6818 1H13.8066C13.9069 2.2383 13.4342 3.16408 12.8602 3.83433C12.2961 4.49967 11.5246 5.14536 10.2765 5.04708C10.1939 3.82647 10.6666 2.96949 11.2396 2.3012C11.7733 1.67812 12.7472 1.12383 13.6818 1ZM17.3731 13.9687V14.0041C17.0346 15.0243 16.5392 15.9855 15.9049 16.8532C15.3447 17.6286 14.6597 18.6713 13.4351 18.6713C12.3767 18.6713 11.674 17.9873 10.589 17.9686C9.44211 17.949 8.81018 18.5416 7.76156 18.69H7.40383C6.63431 18.578 6.01221 17.9627 5.55915 17.4104C4.04787 15.5834 3.15223 13.3257 3 10.9595L3 10.1654C3.08157 8.2303 4.01521 6.65687 5.25548 5.89522C5.91099 5.48933 6.81121 5.14437 7.81365 5.29867C8.24312 5.3655 8.68242 5.5139 9.06669 5.66033C9.4313 5.80185 9.88731 6.05148 10.3197 6.0387C10.6126 6.02986 10.9035 5.87654 11.1983 5.76844C12.0632 5.45395 12.9084 5.09327 14.0258 5.26329C15.3673 5.46673 16.3196 6.0672 16.9083 6.99298C15.7732 7.72023 14.8759 8.81603 15.0292 10.6882C15.1648 12.3884 16.1466 13.383 17.3731 13.9687Z" fill="white"/>
</svg>
