<svg width="16" height="16" viewBox="0 0 16 16" fill="none" xmlns="http://www.w3.org/2000/svg">
<path d="M14.9998 4.23761C14.9998 4.13755 14.972 4.03945 14.9194 3.95433C14.8668 3.86921 14.7915 3.80043 14.702 3.7557L8.24069 0.525049C8.16595 0.487704 8.08355 0.468262 8.00001 0.468262C7.91646 0.468262 7.83406 0.487704 7.75932 0.525049L1.29802 3.7557C1.20842 3.80036 1.13304 3.86911 1.08035 3.95424C1.02767 4.03936 0.999756 4.13749 0.999756 4.23761C0.999756 4.33772 1.02767 4.43585 1.08035 4.52098C1.13304 4.6061 1.20842 4.67486 1.29802 4.71951L7.75932 7.95017C7.83406 7.98751 7.91646 8.00695 8.00001 8.00695C8.08355 8.00695 8.16595 7.98751 8.24069 7.95017L14.702 4.71951C14.7915 4.67479 14.8668 4.606 14.9194 4.52088C14.972 4.43576 14.9998 4.33767 14.9998 4.23761ZM1.00026 5.77217V12.3142C0.999852 12.4208 1.03146 12.5249 1.09099 12.6133C1.15052 12.7016 1.23521 12.77 1.33409 12.8096L7.46156 15.3629V8.97859C7.39916 8.96011 7.33801 8.93763 7.27849 8.91128L1.00026 5.77217ZM8.53845 8.97859V15.3629L14.6659 12.8096C14.7648 12.77 14.8495 12.7016 14.909 12.6133C14.9685 12.5249 15.0002 12.4208 14.9998 12.3142V5.77217L8.72152 8.91128C8.662 8.93763 8.60085 8.96011 8.53845 8.97859Z" fill="white"/>
</svg>
