<svg width="18" height="18" viewBox="0 0 18 18" fill="none" xmlns="http://www.w3.org/2000/svg">
<path d="M14.8005 1H2.60955C2.44788 1 2.29284 1.06422 2.17853 1.17853C2.06422 1.29284 2 1.44788 2 1.60955V16.2386C2 16.4003 2.06422 16.5553 2.17853 16.6696C2.29284 16.784 2.44788 16.8482 2.60955 16.8482H12.9718C13.0844 16.8478 13.1947 16.8163 13.2904 16.7572C13.3862 16.698 13.4637 16.6135 13.5143 16.5129L15.3429 12.8557C15.3865 12.7707 15.4094 12.6768 15.41 12.5814V1.60955C15.41 1.44788 15.3458 1.29284 15.2315 1.17853C15.1172 1.06422 14.9621 1 14.8005 1ZM6.87636 13.1909H6.26682V13.8005C6.26682 13.9621 6.2026 14.1172 6.08829 14.2315C5.97397 14.3458 5.81893 14.41 5.65727 14.41C5.49561 14.41 5.34057 14.3458 5.22626 14.2315C5.11195 14.1172 5.04773 13.9621 5.04773 13.8005V13.1909H4.43818C4.27652 13.1909 4.12148 13.1267 4.00717 13.0124C3.89286 12.8981 3.82864 12.743 3.82864 12.5814C3.82864 12.4197 3.89286 12.2647 4.00717 12.1503C4.12148 12.036 4.27652 11.9718 4.43818 11.9718H5.04773V11.3623C5.04773 11.2006 5.11195 11.0456 5.22626 10.9313C5.34057 10.8169 5.49561 10.7527 5.65727 10.7527C5.81893 10.7527 5.97397 10.8169 6.08829 10.9313C6.2026 11.0456 6.26682 11.2006 6.26682 11.3623V11.9718H6.87636C7.03803 11.9718 7.19307 12.036 7.30738 12.1503C7.42169 12.2647 7.48591 12.4197 7.48591 12.5814C7.48591 12.743 7.42169 12.8981 7.30738 13.0124C7.19307 13.1267 7.03803 13.1909 6.87636 13.1909ZM10.9664 14.2332C10.9072 14.2871 10.8391 14.3304 10.7653 14.3612C10.6923 14.3935 10.6134 14.4101 10.5336 14.4101C10.4539 14.4101 10.375 14.3935 10.302 14.3612C10.2281 14.3304 10.1601 14.2871 10.1009 14.2332C10.0444 14.1763 9.99967 14.1087 9.96934 14.0345C9.939 13.9602 9.92363 13.8807 9.92409 13.8005C9.92505 13.7208 9.94162 13.6421 9.97285 13.5688C10.0002 13.4932 10.0439 13.4245 10.1008 13.3676C10.1577 13.3107 10.2264 13.267 10.302 13.2397C10.4504 13.1787 10.6169 13.1787 10.7653 13.2397C10.8409 13.267 10.9096 13.3107 10.9665 13.3676C11.0234 13.4245 11.067 13.4932 11.0944 13.5688C11.1257 13.6421 11.1422 13.7208 11.1432 13.8005C11.1436 13.8807 11.1283 13.9602 11.0979 14.0345C11.0676 14.1087 11.0229 14.1763 10.9664 14.2332ZM12.9718 12.0937C12.9651 12.1319 12.9528 12.1689 12.9352 12.2034C12.9219 12.2423 12.9035 12.2792 12.8804 12.3132L12.8072 12.4046C12.7506 12.4617 12.6832 12.5071 12.6089 12.538C12.5346 12.569 12.4549 12.5849 12.3745 12.5849C12.294 12.5849 12.2143 12.569 12.14 12.538C12.0658 12.5071 11.9984 12.4617 11.9417 12.4046C11.9155 12.3756 11.891 12.3451 11.8685 12.3132C11.8455 12.2792 11.827 12.2423 11.8137 12.2034C11.7876 12.1704 11.767 12.1333 11.7527 12.0937C11.7497 12.0531 11.7497 12.0124 11.7527 11.9718C11.7527 11.8102 11.8169 11.6551 11.9313 11.5408C12.0456 11.4265 12.2006 11.3623 12.3623 11.3623C12.5239 11.3623 12.679 11.4265 12.7933 11.5408C12.9076 11.6551 12.9718 11.8102 12.9718 11.9718C12.9748 12.0124 12.9748 12.0531 12.9718 12.0937ZM13.5814 8.92409C13.5814 9.08575 13.5171 9.24079 13.4028 9.3551C13.2885 9.46942 13.1335 9.53364 12.9718 9.53364H4.43818C4.27652 9.53364 4.12148 9.46942 4.00717 9.3551C3.89286 9.24079 3.82864 9.08575 3.82864 8.92409V3.43818C3.82864 3.27652 3.89286 3.12148 4.00717 3.00717C4.12148 2.89286 4.27652 2.82864 4.43818 2.82864H12.9718C13.1335 2.82864 13.2885 2.89286 13.4028 3.00717C13.5171 3.12148 13.5814 3.27652 13.5814 3.43818V8.92409Z" fill="white"/>
</svg>
