<svg width="20" height="20" viewBox="0 0 20 20" fill="none" xmlns="http://www.w3.org/2000/svg">
<g clip-path="url(#clip0_123_37)">
<path fill-rule="evenodd" clip-rule="evenodd" d="M7.61905 2H12.381C14.4016 2 16.3396 2.80272 17.7684 4.23157C19.1973 5.66042 20 7.59835 20 9.61905C20 11.6397 19.1973 13.5777 17.7684 15.0065C16.3396 16.4354 14.4016 17.2381 12.381 17.2381H7.61905C5.59835 17.2381 3.66042 16.4354 2.23157 15.0065C0.802719 13.5777 0 11.6397 0 9.61905C0 7.59835 0.802719 5.66042 2.23157 4.23157C3.66042 2.80272 5.59835 2 7.61905 2ZM7.49048 3.84286C5.95854 3.84286 4.48934 4.45142 3.40609 5.53466C2.32285 6.61791 1.71429 8.08711 1.71429 9.61905C1.71429 11.151 2.32285 12.6202 3.40609 13.7034C4.48934 14.7867 5.95854 15.3952 7.49048 15.3952H12.3667C13.8986 15.3952 15.3678 14.7867 16.4511 13.7034C17.5343 12.6202 18.1429 11.151 18.1429 9.61905C18.1429 8.08711 17.5343 6.61791 16.4511 5.53466C15.3678 4.45142 13.8986 3.84286 12.3667 3.84286H7.49048ZM6.22381 6.03714H8.51048L11.5571 10.9657V6.0381H13.7914V13.1762H11.6L8.44191 8.22571V13.179H6.21905L6.22381 6.03714Z" fill="white"/>
</g>
<defs>
<clipPath id="clip0_123_37">
<rect width="20" height="15.2381" fill="white" transform="translate(0 2)"/>
</clipPath>
</defs>
</svg>
