<svg width="20" height="20" viewBox="0 0 20 20" fill="none" xmlns="http://www.w3.org/2000/svg">
<path d="M10.7008 18L7.98411 16.654V2C7.98411 2 13.889 3.147 14.7018 5.987C15.5145 8.829 14.2478 10.669 13.8026 10.723C12.5629 10.873 12.0915 9.975 12.0915 9.975V5.39L10.7436 4.742L10.7008 18ZM11.4761 16.32V18C11.4761 18 18.1684 15.662 19.1531 14.76C20.1378 13.86 16.8476 11.618 15.0798 12.056C15.0798 12.056 13.2011 12.155 11.4988 12.957C11.4822 12.965 11.4988 14.467 11.4988 14.467L15.8183 13.372L17.3399 14.102L11.4761 16.32ZM7.09017 15.547C7.09017 15.547 6.26781 16.023 4.43541 15.999C2.60213 15.975 0.979249 15.404 1.0002 14.166C1.02115 12.928 4.03471 11.571 7.06921 11V12.738L3.84527 13.69C3.84527 13.69 3.29354 14.476 4.03471 14.5C5.07421 14.5254 6.11117 14.3723 7.11112 14.046L7.09017 15.546V15.547Z" fill="white"/>
</svg>
