<svg width="16" height="16" viewBox="0 0 16 16" fill="none" xmlns="http://www.w3.org/2000/svg">
<path d="M11.4207 11.6103H10.1118V7.30548H11.4207V11.6103ZM11.5327 5.75856C11.5327 6.18554 11.1827 6.53552 10.7627 6.53552C10.5567 6.53552 10.359 6.45366 10.2133 6.30795C10.0676 6.16224 9.98577 5.96462 9.98577 5.75856C9.98577 5.32458 10.3358 4.9746 10.7627 4.9746C11.1827 4.9746 11.5327 5.32458 11.5327 5.75856ZM14.2066 11.6103H12.8906V7.30548H14.2066V11.6103ZM14.3326 5.75856C14.3326 6.18554 13.9826 6.53552 13.5486 6.53552C13.3425 6.53552 13.1449 6.45366 12.9992 6.30795C12.8535 6.16224 12.7716 5.96462 12.7716 5.75856C12.7672 5.65329 12.7841 5.5482 12.8213 5.44962C12.8585 5.35104 12.9152 5.26101 12.9882 5.18495C13.0611 5.10888 13.1486 5.04835 13.2455 5.007C13.3424 4.96565 13.4467 4.94434 13.5521 4.94434C13.6575 4.94434 13.7617 4.96565 13.8587 5.007C13.9556 5.04835 14.0431 5.10888 14.116 5.18495C14.1889 5.26101 14.2457 5.35104 14.2829 5.44962C14.3201 5.5482 14.337 5.65329 14.3326 5.75856ZM7.96287 5.38758H9.3628L7.87887 10.6023C7.87887 10.6023 7.68288 11.6803 6.82893 11.6803C5.98197 11.6803 5.78598 10.6023 5.78598 10.6023L4.84803 7.20049L3.91007 10.6023C3.91007 10.6023 3.70708 11.6803 2.86013 11.6803C2.01317 11.6803 1.81718 10.6023 1.81718 10.6023L0.333252 5.38758H1.73318L2.93712 10.0213L3.91007 6.26253C4.13406 5.31758 4.84803 5.33158 4.84803 5.33158C4.84803 5.33158 5.56199 5.31758 5.78598 6.26253L6.75193 10.0213L7.96287 5.38758Z" fill="white"/>
</svg>
