<svg width="20" height="20" viewBox="0 0 20 20" fill="none" xmlns="http://www.w3.org/2000/svg">
<g clip-path="url(#clip0_125_64)">
<path d="M9.70301 0.00528531C5.28982 0.162199 1.85596 3.92329 1.85596 8.33921V19.875C1.85596 19.984 1.99002 20.0362 2.06373 19.9558L4.29775 17.5187C4.44447 17.3586 4.69681 17.3586 4.84349 17.5187L7.00505 19.8767C7.15575 20.0411 7.41493 20.0411 7.56559 19.8767L9.72708 17.5187C9.87379 17.3586 10.1261 17.3586 10.2728 17.5187L12.4343 19.8767C12.585 20.0411 12.8442 20.0411 12.9948 19.8767L15.1564 17.5187C15.3031 17.3586 15.5555 17.3586 15.7021 17.5187L17.9362 19.9558C18.0099 20.0362 18.1439 19.9841 18.1439 19.875V8.14398C18.144 3.54762 14.3362 -0.159441 9.70301 0.00528531Z" fill="#3B71C1"/>
<path d="M5.92798 8.89183C5.92798 4.70415 9.01672 1.10767 13.0996 0.613022C12.058 0.183843 10.909 -0.0376412 9.70301 0.00524938C5.28982 0.162163 1.85596 3.92325 1.85596 8.33918V19.8749C1.85596 19.984 1.99002 20.0361 2.06373 19.9558L4.29775 17.5187C4.44443 17.3586 4.69681 17.3586 4.84349 17.5187L5.92794 18.7017L5.92798 8.89183Z" fill="#0045AD"/>
<path d="M7.28054 11.8457C6.06957 11.8457 5.08789 10.8641 5.08789 9.65308V8.85574C5.08789 7.64476 6.06957 6.66309 7.28054 6.66309C8.49152 6.66309 9.47319 7.64476 9.47319 8.85574V9.65308C9.47312 10.8641 8.49148 11.8457 7.28054 11.8457Z" fill="white"/>
<path d="M8.47656 11.4471C7.26558 11.4471 6.2839 10.4654 6.2839 9.25443V8.45709C6.2839 7.71678 6.65183 7.0635 7.21371 6.6665C6.03398 6.70213 5.08789 7.66732 5.08789 8.85576V9.6531C5.08789 10.8641 6.06957 11.8458 7.28054 11.8458C7.75117 11.8458 8.18617 11.6961 8.54331 11.4437C8.52097 11.4444 8.4991 11.4471 8.47656 11.4471Z" fill="#0045AD" fill-opacity="0.31"/>
<path d="M7.8784 10.2511C7.43805 10.2511 7.08105 9.89418 7.08105 9.45379V9.05515C7.08105 8.6148 7.43801 8.25781 7.8784 8.25781C8.31875 8.25781 8.67574 8.61477 8.67574 9.05515V9.45379C8.67574 9.89422 8.31875 10.2511 7.8784 10.2511Z" fill="#82B9FF"/>
<path d="M12.7195 11.8457C11.5085 11.8457 10.5269 10.8641 10.5269 9.65308V8.85574C10.5269 7.64476 11.5085 6.66309 12.7195 6.66309C13.9305 6.66309 14.9122 7.64476 14.9122 8.85574V9.65308C14.9121 10.8641 13.9304 11.8457 12.7195 11.8457Z" fill="white"/>
<path d="M13.9155 11.4471C12.7045 11.4471 11.7228 10.4654 11.7228 9.25443V8.45709C11.7228 7.71678 12.0908 7.0635 12.6527 6.6665C11.4729 6.70213 10.5269 7.66732 10.5269 8.85576V9.6531C10.5269 10.8641 11.5085 11.8458 12.7195 11.8458C13.1901 11.8458 13.6251 11.6961 13.9823 11.4437C13.9599 11.4444 13.9381 11.4471 13.9155 11.4471Z" fill="#0045AD" fill-opacity="0.35"/>
<path d="M13.3174 10.2511C12.877 10.2511 12.52 9.89418 12.52 9.45379V9.05515C12.52 8.6148 12.877 8.25781 13.3174 8.25781C13.7577 8.25781 14.1147 8.61477 14.1147 9.05515V9.45379C14.1147 9.89422 13.7578 10.2511 13.3174 10.2511Z" fill="#82B9FF"/>
</g>
<defs>
<clipPath id="clip0_125_64">
<rect width="20" height="20" fill="white"/>
</clipPath>
</defs>
</svg>
