<svg width="16" height="16" viewBox="0 0 16 16" fill="none" xmlns="http://www.w3.org/2000/svg">
<path d="M7.76253 6.55L7.67753 6.2975C7.54503 5.9 7.68253 5.46 8.01753 5.2075C8.22753 5.05 8.27003 4.75 8.11253 4.54C7.95753 4.3325 7.73253 4.19 7.48003 4.14C7.21253 4.085 6.96503 3.9375 6.84503 3.69C6.70003 3.39 6.74503 3.05 6.95753 2.8025L7.64503 2C7.73503 1.895 7.89253 1.8825 7.99753 1.9725C8.10253 2.0625 8.11503 2.22 8.02503 2.325L7.33753 3.1275C7.26253 3.215 7.24253 3.33 7.28003 3.4375C7.31753 3.545 7.41003 3.62 7.52253 3.64C7.88253 3.7 8.20253 3.88 8.44003 4.1525C8.80503 4.5725 8.76253 5.275 8.31753 5.6075C8.15253 5.73 8.08503 5.945 8.15003 6.14L8.23503 6.3925L7.76003 6.55H7.76253Z" fill="#393B44"/>
<path d="M8.75 6.47247C8.75 6.33497 8.6375 6.22247 8.5 6.22247H7.5C7.3625 6.22247 7.25 6.33497 7.25 6.47247V7.97247H8.75V6.47247Z" fill="#8D93AB"/>
<path d="M15.395 12.035L13.8 7.65503C13.5 6.83253 12.7225 6.28003 11.865 6.28003H11.3C10.5975 6.28003 9.92749 6.62503 9.50749 7.20753C9.32999 7.45253 9.04999 7.60003 8.75249 7.60003H7.27499C6.96749 7.60003 6.67249 7.44753 6.48499 7.19253C6.06749 6.62253 5.40249 6.28003 4.70749 6.28003H4.10749C3.26499 6.28003 2.50249 6.82253 2.20749 7.63253L0.604988 12.035C0.407488 12.575 0.492488 13.17 0.827488 13.6325C1.51249 14.57 2.52249 14.115 3.33499 13.7475C3.34499 13.7425 3.35249 13.7375 3.36249 13.7325L4.62999 12.9575C5.03749 12.71 5.50249 12.5775 5.97499 12.5775H10.025C10.4975 12.5775 10.9625 12.71 11.37 12.9575L12.6425 13.735C13.215 14.0675 13.685 14.2775 14.1 14.2775C14.4975 14.2775 14.8425 14.0875 15.1725 13.6325C15.5075 13.1725 15.5925 12.575 15.395 12.035Z" fill="#393B44"/>
<path d="M6 8.97247H5.5V8.47247C5.5 8.00997 5.2125 7.72247 4.75 7.72247C4.2875 7.72247 4 8.00997 4 8.47247V8.97247H3.5C3.0375 8.97247 2.75 9.25997 2.75 9.72247C2.75 10.185 3.0375 10.4725 3.5 10.4725H4V10.9725C4 11.435 4.2875 11.7225 4.75 11.7225C5.2125 11.7225 5.5 11.435 5.5 10.9725V10.4725H6C6.4625 10.4725 6.75 10.185 6.75 9.72247C6.75 9.25997 6.4625 8.97247 6 8.97247Z" fill="#D6E4E5"/>
<path d="M11.25 9.22247C11.6642 9.22247 12 8.88669 12 8.47247C12 8.05826 11.6642 7.72247 11.25 7.72247C10.8358 7.72247 10.5 8.05826 10.5 8.47247C10.5 8.88669 10.8358 9.22247 11.25 9.22247Z" fill="#3DB2FF"/>
<path d="M11.25 11.7225C11.6642 11.7225 12 11.3867 12 10.9725C12 10.5583 11.6642 10.2225 11.25 10.2225C10.8358 10.2225 10.5 10.5583 10.5 10.9725C10.5 11.3867 10.8358 11.7225 11.25 11.7225Z" fill="#4E944F"/>
<path d="M12.5 10.4725C12.9142 10.4725 13.25 10.1367 13.25 9.72247C13.25 9.30826 12.9142 8.97247 12.5 8.97247C12.0858 8.97247 11.75 9.30826 11.75 9.72247C11.75 10.1367 12.0858 10.4725 12.5 10.4725Z" fill="#E94560"/>
<path d="M10 10.4725C10.4142 10.4725 10.75 10.1367 10.75 9.72247C10.75 9.30826 10.4142 8.97247 10 8.97247C9.58579 8.97247 9.25 9.30826 9.25 9.72247C9.25 10.1367 9.58579 10.4725 10 10.4725Z" fill="#FEC260"/>
<path d="M8.75 11H7.25C7.11193 11 7 11.1119 7 11.25C7 11.3881 7.11193 11.5 7.25 11.5H8.75C8.88807 11.5 9 11.3881 9 11.25C9 11.1119 8.88807 11 8.75 11Z" fill="#F79327"/>
</svg>
